<?xml version="1.0" encoding="UTF-8" standalone="no"?>
<svg width="17px" height="17px" viewBox="0 0 17 17" version="1.1" xmlns="http://www.w3.org/2000/svg" xmlns:xlink="http://www.w3.org/1999/xlink">
    <!-- Generator: Sketch 40.3 (33839) - http://www.bohemiancoding.com/sketch -->
    <title>Fill 4</title>
    <desc>Created with Sketch.</desc>
    <defs></defs>
    <g id="Website-Tuscany-Villa's" stroke="none" stroke-width="1" fill="none" fill-rule="evenodd">
        <g id="Desktop-HD" transform="translate(-241.000000, -541.000000)" fill="#FEFEFE">
            <g id="Quick-Search" transform="translate(209.000000, 509.000000)">
                <g id="Field" transform="translate(20.000000, 20.000000)">
                    <g id="Search-Button">
                        <path d="M28.1432,26.3789189 L24.548,22.7351351 C24.5288,22.7156757 24.5072,22.7027027 24.4872,22.6848649 C25.1944,21.5967568 25.6072,20.2954054 25.6072,18.8951351 C25.6072,15.0867568 22.5608,12 18.804,12 C15.0464,12 12,15.0867568 12,18.8951351 C12,22.7035135 15.0464,25.7902703 18.804,25.7902703 C20.1848,25.7902703 21.4696,25.3718919 22.5424,24.6551351 C22.56,24.6754054 22.5736,24.6981081 22.5928,24.7175676 L26.188,28.3605405 C26.728,28.9078378 27.6032,28.9078378 28.1432,28.3605405 C28.6832,27.8132432 28.6832,26.9262162 28.1432,26.3789189 M18.804,23.4 C16.3488,23.4 14.3584,21.3835135 14.3584,18.8951351 C14.3584,16.4067568 16.3488,14.3902703 18.804,14.3902703 C21.2584,14.3902703 23.2488,16.4067568 23.2488,18.8951351 C23.2488,21.3835135 21.2584,23.4 18.804,23.4" id="Fill-4"></path>
                    </g>
                </g>
            </g>
        </g>
    </g>
</svg>