<?xml version="1.0" encoding="utf-8"?>
<!-- Generator: Adobe Illustrator 19.0.0, SVG Export Plug-In . SVG Version: 6.00 Build 0)  -->
<svg version="1.1" id="Layer_1" xmlns="http://www.w3.org/2000/svg" xmlns:xlink="http://www.w3.org/1999/xlink" x="0px" y="0px"
	 viewBox="-463 265 32 32" style="enable-background:new -463 265 32 32;" xml:space="preserve">
<style type="text/css">
	.st0{fill:#E98B3F;}
</style>
<g>
	<path class="st0" d="M-436.3,265.3h-21.4c-2.8,0-5,2.2-5,5v21.4c0,2.8,2.2,5,5,5h21.4c2.8,0,5-2.2,5-5v-21.4
		C-431.3,267.5-433.5,265.3-436.3,265.3L-436.3,265.3z M-443.1,272.3c0-2.6,2.2-4.8,4.8-4.8c2.6,0,4.8,2.2,4.8,4.8
		c0,1.7-2.7,6-4.8,8.9C-440.4,278.2-443.1,274-443.1,272.3L-443.1,272.3z M-460.5,270.3c0-1.6,1.3-2.8,2.8-2.8h14.4
		c-1.2,1.3-1.9,2.9-1.9,4.8c0,1.1,0.6,2.6,1.3,4.1l-3.9,3.9l0,0l0,0l-12.5,12.5c-0.1-0.3-0.2-0.7-0.2-1.1V270.3z M-457.7,294.5
		c-0.4,0-0.7-0.1-1.1-0.2l11.8-11.8l11.8,11.8c-0.3,0.1-0.7,0.2-1.1,0.2H-457.7z M-433.5,291.7c0,0.4-0.1,0.7-0.2,1.1l-11.8-11.8
		l2.7-2.7c1.5,2.6,3.3,4.9,3.7,5.3c0.2,0.3,0.5,0.4,0.9,0.4c0.3,0,0.7-0.2,0.9-0.4c0.4-0.5,2.3-3.1,3.9-5.8L-433.5,291.7
		L-433.5,291.7z"/>
	<path class="st0" d="M-453.4,279.5c2.9,0,5.3-2.4,5.3-5.3c0-0.6-0.5-1.1-1.1-1.1h-4.2c-0.6,0.1-1.1,0.6-1.1,1.2
		c0,0.6,0.5,1.1,1.1,1.1h2.9c-0.4,1.2-1.6,2-2.9,2c-1.7,0-3.1-1.4-3.1-3.1c0-1.7,1.4-3.1,3.1-3.1c0.8,0,1.6,0.3,2.2,0.9
		c0.4,0.4,1.1,0.4,1.5,0c0.4-0.4,0.4-1.1,0-1.5c-1-1-2.3-1.6-3.7-1.6c-2.9,0-5.3,2.4-5.3,5.3C-458.7,277.2-456.3,279.5-453.4,279.5
		L-453.4,279.5z"/>
</g>
</svg>
